<mxfile host="Electron" agent="Mozilla/5.0 (Windows NT 10.0; Win64; x64) AppleWebKit/537.36 (KHTML, like Gecko) draw.io/26.0.16 Chrome/132.0.6834.196 Electron/34.2.0 Safari/537.36" version="26.0.16">
  <diagram name="1 oldal" id="ozqdmFruul4j5zL6X9_F">
    <mxGraphModel dx="1674" dy="844" grid="1" gridSize="10" guides="1" tooltips="1" connect="1" arrows="1" fold="1" page="1" pageScale="1" pageWidth="827" pageHeight="1169" math="0" shadow="0">
      <root>
        <mxCell id="0" />
        <mxCell id="1" parent="0" />
        <mxCell id="0eA4ct58Rhzi-e8qH5YW-1" value="Users" style="rounded=1;whiteSpace=wrap;html=1;fontStyle=1;fontFamily=Times New Roman;fontSize=14;" parent="1" vertex="1">
          <mxGeometry x="280" y="240" width="120" height="40" as="geometry" />
        </mxCell>
        <mxCell id="0eA4ct58Rhzi-e8qH5YW-9" value="" style="endArrow=ERzeroToMany;html=1;rounded=0;exitX=1;exitY=0.75;exitDx=0;exitDy=0;" parent="1" source="0eA4ct58Rhzi-e8qH5YW-1" target="5CBGArM91QVwlpxLiniN-2" edge="1">
          <mxGeometry width="50" height="50" relative="1" as="geometry">
            <mxPoint x="390" y="260" as="sourcePoint" />
            <mxPoint x="440" y="265" as="targetPoint" />
            <Array as="points">
              <mxPoint x="440" y="270" />
              <mxPoint x="440" y="300" />
            </Array>
          </mxGeometry>
        </mxCell>
        <mxCell id="5CBGArM91QVwlpxLiniN-2" value="Groups" style="rounded=1;whiteSpace=wrap;html=1;fontStyle=1;fontFamily=Times New Roman;fontSize=14;" vertex="1" parent="1">
          <mxGeometry x="480" y="280" width="120" height="40" as="geometry" />
        </mxCell>
        <mxCell id="5CBGArM91QVwlpxLiniN-3" value="Messa&lt;span style=&quot;background-color: transparent; color: light-dark(rgb(0, 0, 0), rgb(255, 255, 255));&quot;&gt;ges&lt;/span&gt;" style="rounded=1;whiteSpace=wrap;html=1;fontStyle=1;fontFamily=Times New Roman;fontSize=14;direction=west;" vertex="1" parent="1">
          <mxGeometry x="280" y="320" width="120" height="40" as="geometry" />
        </mxCell>
        <mxCell id="5CBGArM91QVwlpxLiniN-4" value="Friends" style="rounded=1;whiteSpace=wrap;html=1;fontStyle=1;fontFamily=Times New Roman;fontSize=14;" vertex="1" parent="1">
          <mxGeometry x="120" y="160" width="120" height="40" as="geometry" />
        </mxCell>
        <mxCell id="5CBGArM91QVwlpxLiniN-5" value="" style="endArrow=ERzeroToMany;html=1;rounded=0;exitX=0;exitY=0.25;exitDx=0;exitDy=0;entryX=0.5;entryY=1;entryDx=0;entryDy=0;" edge="1" parent="1" source="0eA4ct58Rhzi-e8qH5YW-1" target="5CBGArM91QVwlpxLiniN-4">
          <mxGeometry width="50" height="50" relative="1" as="geometry">
            <mxPoint x="350" y="300" as="sourcePoint" />
            <mxPoint x="350" y="370" as="targetPoint" />
            <Array as="points">
              <mxPoint x="180" y="250" />
            </Array>
          </mxGeometry>
        </mxCell>
        <mxCell id="5CBGArM91QVwlpxLiniN-6" value="Comments" style="rounded=1;whiteSpace=wrap;html=1;fontStyle=1;fontFamily=Times New Roman;fontSize=14;" vertex="1" parent="1">
          <mxGeometry x="280" y="160" width="120" height="40" as="geometry" />
        </mxCell>
        <mxCell id="5CBGArM91QVwlpxLiniN-8" value="" style="endArrow=ERzeroToMany;startArrow=ERmandOne;html=1;rounded=0;entryX=0.5;entryY=1;entryDx=0;entryDy=0;" edge="1" parent="1" source="0eA4ct58Rhzi-e8qH5YW-1" target="5CBGArM91QVwlpxLiniN-6">
          <mxGeometry width="50" height="50" relative="1" as="geometry">
            <mxPoint x="340" y="240" as="sourcePoint" />
            <mxPoint x="350" y="290" as="targetPoint" />
            <Array as="points" />
          </mxGeometry>
        </mxCell>
        <mxCell id="5CBGArM91QVwlpxLiniN-9" value="Posts" style="rounded=1;whiteSpace=wrap;html=1;fontStyle=1;fontFamily=Times New Roman;fontSize=14;" vertex="1" parent="1">
          <mxGeometry x="440" y="160" width="120" height="40" as="geometry" />
        </mxCell>
        <mxCell id="5CBGArM91QVwlpxLiniN-14" value="" style="endArrow=ERzeroToMany;startArrow=ERmandOne;html=1;rounded=0;exitX=0.5;exitY=1;exitDx=0;exitDy=0;entryX=0.5;entryY=0;entryDx=0;entryDy=0;" edge="1" parent="1" source="5CBGArM91QVwlpxLiniN-2" target="5CBGArM91QVwlpxLiniN-13">
          <mxGeometry width="50" height="50" relative="1" as="geometry">
            <mxPoint x="490" y="390" as="sourcePoint" />
            <mxPoint x="340" y="250" as="targetPoint" />
          </mxGeometry>
        </mxCell>
        <mxCell id="5CBGArM91QVwlpxLiniN-13" value="Group Messa&lt;span style=&quot;color: light-dark(rgb(0, 0, 0), rgb(255, 255, 255)); background-color: transparent;&quot;&gt;ges&lt;/span&gt;" style="rounded=1;whiteSpace=wrap;html=1;fontStyle=1;fontFamily=Times New Roman;fontSize=14;" vertex="1" parent="1">
          <mxGeometry x="480" y="360" width="120" height="40" as="geometry" />
        </mxCell>
        <mxCell id="5CBGArM91QVwlpxLiniN-15" value="Interests" style="rounded=1;whiteSpace=wrap;html=1;fontStyle=1;fontFamily=Times New Roman;fontSize=14;" vertex="1" parent="1">
          <mxGeometry x="120" y="320" width="120" height="40" as="geometry" />
        </mxCell>
        <mxCell id="5CBGArM91QVwlpxLiniN-21" value="" style="endArrow=ERmany;html=1;rounded=0;exitX=0;exitY=0.75;exitDx=0;exitDy=0;entryX=0.5;entryY=0;entryDx=0;entryDy=0;" edge="1" parent="1" source="0eA4ct58Rhzi-e8qH5YW-1" target="5CBGArM91QVwlpxLiniN-15">
          <mxGeometry width="50" height="50" relative="1" as="geometry">
            <mxPoint x="290" y="270" as="sourcePoint" />
            <mxPoint x="190" y="210" as="targetPoint" />
            <Array as="points">
              <mxPoint x="180" y="270" />
            </Array>
          </mxGeometry>
        </mxCell>
        <mxCell id="5CBGArM91QVwlpxLiniN-24" value="" style="endArrow=ERzeroToMany;startArrow=ERmandOne;html=1;rounded=0;exitX=1;exitY=0.25;exitDx=0;exitDy=0;entryX=0.5;entryY=1;entryDx=0;entryDy=0;" edge="1" parent="1" source="0eA4ct58Rhzi-e8qH5YW-1" target="5CBGArM91QVwlpxLiniN-9">
          <mxGeometry width="50" height="50" relative="1" as="geometry">
            <mxPoint x="550" y="330" as="sourcePoint" />
            <mxPoint x="550" y="370" as="targetPoint" />
            <Array as="points">
              <mxPoint x="500" y="250" />
            </Array>
          </mxGeometry>
        </mxCell>
        <mxCell id="5CBGArM91QVwlpxLiniN-25" value="" style="endArrow=ERzeroToMany;startArrow=ERmandOne;html=1;rounded=0;exitX=0;exitY=0.5;exitDx=0;exitDy=0;entryX=1;entryY=0.5;entryDx=0;entryDy=0;" edge="1" parent="1" source="5CBGArM91QVwlpxLiniN-9" target="5CBGArM91QVwlpxLiniN-6">
          <mxGeometry width="50" height="50" relative="1" as="geometry">
            <mxPoint x="410" y="260" as="sourcePoint" />
            <mxPoint x="510" y="210" as="targetPoint" />
            <Array as="points" />
          </mxGeometry>
        </mxCell>
        <mxCell id="5CBGArM91QVwlpxLiniN-27" value="" style="endArrow=ERzeroToMany;startArrow=ERmandOne;html=1;rounded=0;" edge="1" parent="1" source="0eA4ct58Rhzi-e8qH5YW-1" target="5CBGArM91QVwlpxLiniN-3">
          <mxGeometry width="50" height="50" relative="1" as="geometry">
            <mxPoint x="339.65999999999997" y="280" as="sourcePoint" />
            <mxPoint x="339.65999999999997" y="320" as="targetPoint" />
          </mxGeometry>
        </mxCell>
        <mxCell id="5CBGArM91QVwlpxLiniN-28" value="" style="endArrow=ERzeroToMany;startArrow=ERmandOne;html=1;rounded=0;exitX=0.75;exitY=1;exitDx=0;exitDy=0;entryX=0;entryY=0.5;entryDx=0;entryDy=0;" edge="1" parent="1" source="0eA4ct58Rhzi-e8qH5YW-1" target="5CBGArM91QVwlpxLiniN-13">
          <mxGeometry width="50" height="50" relative="1" as="geometry">
            <mxPoint x="550" y="330" as="sourcePoint" />
            <mxPoint x="550" y="370" as="targetPoint" />
            <Array as="points">
              <mxPoint x="370" y="300" />
              <mxPoint x="420" y="300" />
              <mxPoint x="420" y="380" />
            </Array>
          </mxGeometry>
        </mxCell>
      </root>
    </mxGraphModel>
  </diagram>
</mxfile>
